<svg width="46" height="314" viewBox="0 0 46 314" fill="none" xmlns="http://www.w3.org/2000/svg">
<path d="M19.9442 37.6353H12.5356V45.0439H19.9442V37.6353Z" fill="white"/>
<path d="M32.4511 37.6353H25.0425V45.0439H32.4511V37.6353Z" fill="white"/>
<path d="M45.0437 53.8845V20.431C45.0437 19.4381 44.6523 18.5025 43.9553 17.8055L27.1904 1.07883C26.5221 0.420075 25.6438 0.0381888 24.6986 0H3.57065C1.57528 0.0668305 0 1.68985 0 3.70432V49.235H7.41814V7.41818H23.0469L37.6064 21.9395L37.6446 50.1801H8.3347V57.5983H41.349C43.3921 57.5983 45.0533 55.9371 45.0533 53.894L45.0437 53.8845Z" fill="white"/>
<path d="M19.9442 121.612H12.5356V129.021H19.9442V121.612Z" fill="white"/>
<path d="M32.4511 121.612H25.0425V129.021H32.4511V121.612Z" fill="white"/>
<path d="M45.0437 137.862V104.408C45.0437 103.435 44.6427 102.47 43.9553 101.783L27.1904 85.0561C26.5221 84.3974 25.6438 84.0155 24.6986 83.9773H3.57065C1.57528 84.0441 0 85.6672 0 87.6816V133.212H7.41814V91.3955H23.0469L37.6064 105.917L37.6446 134.157H8.3347V141.576H41.349C43.3921 141.576 45.0533 139.914 45.0533 137.871L45.0437 137.862Z" fill="white"/>
<path d="M19.9442 205.58H12.5356V212.989H19.9442V205.58Z" fill="white"/>
<path d="M32.4511 205.58H25.0425V212.989H32.4511V205.58Z" fill="white"/>
<path d="M45.0437 221.839V188.385C45.0437 187.412 44.6427 186.447 43.9553 185.76L27.1904 169.033C26.5221 168.374 25.6438 167.993 24.6986 167.954H3.57065C1.57528 168.021 0 169.644 0 171.659V217.189H7.41814V175.373H23.0469L37.6064 189.894L37.6446 218.135H8.3347V225.553H41.349C43.3921 225.553 45.0533 223.891 45.0533 221.839H45.0437Z" fill="white"/>
<path d="M37.9887 279.523V264.152H33.9979V248.199H11.0273V264.152H7.03662V279.523L14.8462 297.291H18.9992V313.244H26.0165V297.291H30.1695L37.9791 279.523H37.9887ZM18.0541 255.226H26.9808V264.152H18.0541V255.226ZM18.8274 290.273L14.0729 279.628V271.179H19.0184V279.151H26.0355V271.179H30.981L30.9428 279.829L26.2265 290.283H18.837L18.8274 290.273Z" fill="white"/>
</svg>
